<?xml version="1.0" standalone="no"?>
<!DOCTYPE svg PUBLIC "-//W3C//DTD SVG 20010904//EN"
 "http://www.w3.org/TR/2001/REC-SVG-20010904/DTD/svg10.dtd">
<svg version="1.0" xmlns="http://www.w3.org/2000/svg"
 width="544.000000pt" height="544.000000pt" viewBox="0 0 544.000000 544.000000"
 preserveAspectRatio="xMidYMid meet">
<metadata>
Created by potrace 1.14, written by Peter Selinger 2001-2017
</metadata>
<g transform="translate(0.000000,544.000000) scale(0.100000,-0.100000)"
fill="#000000" stroke="none">
<path d="M4878 3614 c-42 -28 -62 -48 -73 -78 -29 -70 -8 -165 45 -209 52 -44
147 -55 204 -25 44 24 85 79 88 121 1 15 6 27 10 27 4 0 0 24 -8 53 -17 58
-78 127 -114 127 -11 0 -20 4 -20 9 0 9 -45 5 -61 -5 -4 -2 -9 1 -11 7 -2 5
-29 -7 -60 -27z"/>
<path d="M230 3162 c0 -5 -24 -8 -52 -6 -97 5 -87 71 -85 -604 l2 -597 510 1
c590 1 589 1 684 51 82 43 125 95 156 187 43 131 -5 294 -106 357 l-36 22 42
38 c64 59 92 174 69 283 -11 52 -65 146 -105 179 -35 30 -125 71 -159 72 -8 0
-19 2 -25 5 -5 3 -88 5 -182 5 -95 0 -173 4 -173 9 0 5 -6 4 -12 -1 -15 -11
-178 -10 -196 1 -7 4 -12 3 -12 -1 0 -10 -292 -9 -308 1 -7 4 -12 3 -12 -2z
m262 -321 c10 5 19 5 22 0 3 -4 23 -5 44 -1 21 3 47 3 58 0 10 -4 27 -4 36 1
10 5 19 5 22 0 3 -5 21 -5 40 -1 19 4 40 4 46 0 7 -4 26 -4 41 0 16 5 31 5 34
1 2 -5 22 -5 43 -1 21 3 47 3 58 0 10 -4 29 -4 40 1 12 4 24 6 26 4 2 -3 20
-7 39 -9 50 -7 65 -14 77 -41 8 -17 8 -26 1 -31 -8 -4 -7 -9 1 -14 8 -5 7 -11
-4 -22 -8 -9 -13 -18 -10 -21 15 -14 -93 -21 -356 -21 -157 -1 -294 0 -306 2
-18 3 -20 10 -18 75 1 40 2 75 3 79 0 4 11 4 24 -1 13 -5 30 -5 39 0z m600
-429 c61 -25 41 -140 -25 -143 -76 -4 -620 -3 -627 1 -5 3 -10 38 -12 77 -2
58 0 73 12 75 45 9 628 0 652 -10z"/>
<path d="M2676 3163 c-3 -3 -18 -7 -33 -9 -16 -1 -29 -3 -30 -4 -2 -1 -6 -3
-10 -4 -5 -1 -24 -6 -43 -10 -49 -12 -96 -34 -160 -77 -61 -40 -165 -146 -175
-178 -3 -12 -10 -21 -15 -21 -4 0 -11 -10 -15 -22 -9 -28 -8 -26 -27 -69 -26
-60 -39 -139 -37 -228 2 -116 29 -211 86 -306 10 -16 19 -31 20 -33 4 -10 92
46 132 84 41 39 44 46 33 64 -65 104 -72 264 -16 372 8 15 14 30 14 33 0 5 19
26 78 88 86 88 233 121 369 82 178 -51 296 -221 279 -406 -6 -67 -36 -156 -64
-189 -54 -63 -91 -98 -96 -93 -3 4 -6 2 -6 -4 0 -18 -116 -61 -181 -68 -35 -3
-86 -2 -113 3 -42 9 -50 8 -65 -10 -32 -39 -92 -98 -116 -114 -23 -15 -37 -53
-15 -39 6 3 10 2 10 -2 0 -7 56 -28 105 -39 6 -2 21 -6 35 -10 30 -8 194 -8
233 -1 91 18 192 65 263 122 83 68 163 170 162 209 0 5 5 12 12 16 6 4 13 13
14 21 2 8 8 26 14 40 31 75 34 233 8 354 -6 28 -41 112 -53 126 -7 8 -13 19
-13 23 0 15 -55 83 -109 134 -55 51 -175 121 -236 137 -49 13 -58 15 -108 20
-26 2 -51 6 -55 9 -5 3 -14 1 -22 -4 -8 -5 -21 -5 -31 0 -9 5 -19 7 -23 3z"/>
<path d="M2057 3154 c-1 -1 -22 -4 -47 -7 -88 -12 -176 -47 -250 -101 -69 -50
-160 -144 -160 -165 0 -6 -4 -11 -8 -11 -19 0 -78 -159 -89 -240 -7 -58 -8
-152 -1 -156 3 -2 5 -15 3 -29 -1 -14 2 -25 7 -25 5 0 6 -5 3 -10 -4 -6 -2
-16 3 -23 5 -7 12 -25 16 -42 20 -85 99 -198 197 -279 30 -25 169 -100 169
-91 0 4 7 2 15 -5 8 -7 15 -9 15 -5 0 4 6 3 13 -3 20 -16 220 -36 233 -23 5 5
18 8 71 15 44 6 180 68 221 100 77 62 144 144 185 226 67 136 80 302 35 445
-22 71 -63 155 -81 167 -11 7 -66 -23 -117 -62 -44 -34 -54 -64 -35 -101 9
-16 13 -29 10 -29 -3 0 2 -12 11 -26 18 -26 24 -152 11 -223 -23 -126 -169
-265 -302 -287 -68 -12 -175 -4 -214 16 -9 4 -33 16 -53 26 -66 32 -160 135
-170 186 -2 7 -7 16 -11 19 -4 3 -9 22 -10 42 -1 21 -4 37 -7 37 -3 0 -6 23
-6 50 0 28 2 50 5 50 3 0 6 16 7 34 1 38 60 165 81 173 7 3 13 10 13 15 0 13
21 30 88 69 89 52 140 60 297 47 13 -1 50 28 103 79 l82 80 -47 20 c-48 20
-86 32 -133 40 -26 4 -149 10 -153 7z"/>
<path d="M3734 3131 c-87 -33 -114 -74 -162 -241 -18 -63 -41 -144 -52 -180
-10 -36 -37 -130 -59 -210 -22 -80 -45 -156 -51 -170 -5 -14 -12 -36 -14 -50
-3 -14 -12 -50 -22 -80 -9 -30 -17 -59 -19 -65 -4 -23 -26 -101 -32 -115 -3
-8 -8 -25 -10 -36 -3 -20 1 -21 47 -19 28 1 53 -2 56 -6 3 -5 13 -5 22 -1 9 5
65 8 124 7 l107 -1 7 31 c3 16 24 98 46 180 22 83 41 155 42 160 1 6 4 15 7
20 4 6 5 18 4 28 -2 9 0 17 5 17 5 0 7 8 5 18 -1 9 2 23 8 30 5 6 6 12 2 12
-4 0 -2 7 5 15 7 8 10 15 7 15 -3 0 -1 15 4 33 6 17 12 39 14 47 14 65 27 100
35 95 6 -4 10 -12 10 -19 0 -8 7 -19 15 -26 8 -7 13 -16 10 -20 -3 -5 -2 -10
2 -12 5 -1 21 -28 36 -58 116 -227 233 -451 253 -482 27 -43 98 -98 126 -98
10 0 18 -3 18 -7 0 -10 46 -9 80 1 51 14 99 39 94 47 -3 5 1 9 8 9 23 0 60 67
338 608 18 35 36 59 40 55 6 -6 55 -185 75 -273 2 -8 15 -57 29 -109 14 -52
23 -98 20 -102 -2 -4 0 -9 5 -11 5 -1 12 -16 15 -33 6 -36 12 -59 25 -102 5
-18 7 -33 4 -33 -3 0 0 -6 6 -13 6 -8 8 -16 5 -20 -3 -3 13 -4 35 -2 23 2 41
-1 41 -7 0 -5 6 -6 13 -1 16 10 87 11 93 1 3 -4 13 -4 22 0 9 5 46 8 80 7 67
-2 82 7 67 43 -5 9 -9 22 -10 27 -2 6 -17 60 -34 120 -18 61 -34 117 -36 125
-2 8 -27 94 -55 190 -28 96 -53 182 -55 190 -1 8 -11 42 -21 75 -10 33 -19 62
-19 65 -1 3 -8 25 -15 50 -7 25 -14 47 -15 50 -1 3 -5 19 -9 35 -24 94 -63
157 -114 184 -83 44 -201 25 -258 -42 -20 -22 -109 -169 -107 -174 2 -4 -85
-157 -97 -170 -6 -7 -11 -16 -11 -20 -2 -16 -42 -88 -53 -95 -6 -4 -8 -8 -4
-8 4 0 -18 -44 -49 -97 -31 -54 -63 -113 -73 -131 -19 -39 -22 -37 -71 58 -18
36 -36 67 -40 70 -4 3 -14 21 -22 40 -9 19 -36 71 -61 115 -25 44 -56 100 -68
125 -13 25 -25 47 -28 50 -3 3 -21 34 -39 70 -71 136 -141 220 -183 220 -8 0
-18 3 -22 8 -13 12 -79 9 -122 -7z"/>
</g>
</svg>
